<?xml version="1.0" encoding="UTF-8"?>
<svg id="Layer_1" xmlns="http://www.w3.org/2000/svg" version="1.1" viewBox="0 0 176 124">
  <!-- Generator: Adobe Illustrator 29.3.1, SVG Export Plug-In . SVG Version: 2.1.0 Build 151)  -->
  <defs>
    <style>
      .st0 {
        fill: #fff;
      }
    </style>
  </defs>
  <path class="st0" d="M172.5,19.4h-.2c-2-7.6-8-13.6-15.6-15.7C143,0,88,0,88,0c0,0-55,0-68.8,3.7-7.6,2-13.5,8-15.6,15.7C0,33.2,0,62,0,62c0,0,0,28.8,3.7,42.6,2,7.6,8,13.6,15.6,15.7,13.7,3.7,68.8,3.7,68.8,3.7,0,0,55,0,68.8-3.7,7.6-2,13.5-8,15.6-15.7,3.7-13.8,3.7-42.6,3.7-42.6,0,0,0-28.8-3.7-42.6ZM70,88.2v-52.4l46,26.2-46,26.2Z"/>
</svg>