<?xml version="1.0" encoding="UTF-8"?><svg id="Layer_1" xmlns="http://www.w3.org/2000/svg" viewBox="0 0 176 124"><defs><style>.cls-1{fill:#fff;}.cls-2{fill:#282828;}</style></defs><path class="cls-1" d="M172.322,19.363c-2.024-7.622-7.988-13.624-15.56-15.661C143.037,0,88,0,88,0c0,0-55.037,0-68.762,3.702-7.572,2.037-13.536,8.04-15.56,15.661C0,33.177,0,62,0,62c0,0,0,28.823,3.678,42.637,2.024,7.622,7.988,13.624,15.56,15.661,13.725,3.702,68.762,3.702,68.762,3.702,0,0,55.037,0,68.762-3.702,7.572-2.037,13.536-8.04,15.56-15.661,3.678-13.814,3.678-42.637,3.678-42.637,0,0,0-28.823-3.678-42.637h0Z"/><polygon class="cls-2" points="70 88.169 116 62.001 70 35.831 70 88.169"/></svg>