<?xml version="1.0" encoding="UTF-8"?>
<svg id="v1-7:_organic" xmlns="http://www.w3.org/2000/svg" version="1.1" viewBox="0 0 629.56 629.56">
  <!-- Generator: Adobe Illustrator 29.7.1, SVG Export Plug-In . SVG Version: 2.1.1 Build 8)  -->
  <defs>
    <style>
      .st0 {
        fill: #fff;
      }
    </style>
  </defs>
  <g id="minimal">
    <g id="outline">
      <path class="st0" d="M315.28,54.77c-176.82,0-257.81,154.95-257.81,245.05,0,79.59,22.23,124.04,35.52,137.79,23.65,24.47,73.68,45.81,140.77,55.59,73.49,12.2,41.5,95.81,81.45,95.81s9.12-83.61,83.15-96.06c70.6-10.57,120.17-33.55,139.69-55.24,13.2-14.67,35.04-61.3,35.04-131.19,0-119.32-100.55-251.74-257.81-251.74h0ZM517.2,372.53c-8.31-7.59-24.95-14.55-45.18-14.55-16.1,0-27.88,3.53-27.88,12.78,0,16.49,27.53,17.47,35.48,34.86,2.73,5.96-.32,16.73-12.61,23.27-33.1,17.02-82.02,24.45-151.73,24.45s-119.05-7.56-152.23-24.3c-12.53-6.52-15.63-17.41-12.88-23.42,7.96-17.39,35.48-18.37,35.48-34.86,0-9.26-11.79-12.78-27.88-12.78-20.42,0-37.18,7.09-45.41,14.76-5.89-16.58-8.51-35.97-8.51-58.41,0-127.25,92.16-218.83,211.43-218.83s211.43,91.58,211.43,211.43c0,25.6-2.89,47.33-9.51,65.59h0Z"/>
    </g>
    <g id="core">
      <path class="st0" d="M315.28,194.78c-65.69,0-114.89,51.44-114.89,114.89s31.15,101.12,114.89,101.12,114.89-37.32,114.89-101.12c0-67.57-55.75-114.89-114.89-114.89Z"/>
    </g>
  </g>
</svg>