<?xml version="1.0" encoding="UTF-8"?>
<svg id="Layer_1" xmlns="http://www.w3.org/2000/svg" version="1.1" viewBox="0 0 176 124">
  <!-- Generator: Adobe Illustrator 29.3.1, SVG Export Plug-In . SVG Version: 2.1.0 Build 151)  -->
  <defs>
    <style>
      .st0 {
        fill: #fff;
      }
    </style>
  </defs>
  <path class="st0" d="M172.3,19.4c-2-7.6-8-13.6-15.6-15.7C143,0,88,0,88,0c0,0-55,0-68.8,3.7-7.6,2-13.5,8-15.6,15.7C0,33.2,0,62,0,62c0,0,0,28.8,3.7,42.6,2,7.6,8,13.6,15.6,15.7,13.7,3.7,68.8,3.7,68.8,3.7,0,0,55,0,68.8-3.7,7.6-2,13.5-8,15.6-15.7,3.7-13.8,3.7-42.6,3.7-42.6,0,0,0-28.8-3.7-42.6h0ZM117.3,98c-1.8,1.8-3.9,2.7-6.4,2.7h-45c-3,0-5.4-.9-7.2-2.6-1.8-1.7-2.7-4.1-2.7-7.1v-3c0-3.4.8-6.7,2.4-9.8,1.6-3.1,4.3-6.5,8.3-10.3,4-3.7,9.5-8,16.7-13l.8-.6c4.1-2.9,7.1-5.1,9-6.6,1.9-1.5,3.2-2.9,4-4.1.8-1.3,1.2-2.6,1.2-4.2,0-2.6-1-4.7-2.9-6.3-1.9-1.6-4.4-2.4-7.6-2.4s-5.2.6-6.9,1.8c-1.7,1.2-3.4,2.8-5,4.7-.2.2-.4.5-.6.7-.5.6-1,1.1-1.5,1.7-1.1,1.5-2.1,2.6-3.1,3.3-1,.8-2.4,1.2-4.2,1.2s-4.4-.7-5.8-2.2c-1.5-1.5-2.2-3.5-2.2-6s1.5-6.8,4.4-10.3c2.5-2.9,6-5.5,10.4-7.7,4.4-2.2,9.5-3.3,15.2-3.3s10.1,1,14.3,3c4.2,2,7.5,4.8,10,8.4,2.4,3.6,3.7,7.8,3.8,12.6,0,3.3-.6,6.4-1.7,9.3-1.1,2.9-2.8,5.5-4.9,8-2.1,2.5-4.8,5-8.1,7.5l-1.1.8c-2.6,1.9-5.2,3.7-7.9,5.6-5.4,3.6-9.3,6.6-11.8,8.9-1.4,1.3-2.4,2.7-3,4.2l32.4-.4c2.5,0,4.7.9,6.4,2.7,1.8,1.8,2.7,3.9,2.7,6.4s-.9,4.7-2.7,6.4h0Z"/>
</svg>