<?xml version="1.0" encoding="UTF-8"?><svg id="v3-5:_white" xmlns="http://www.w3.org/2000/svg" viewBox="0 0 629.556 629.556"><defs><style>.cls-1{fill:#fff;}</style></defs><g id="Antenna"><path class="cls-1" d="M339.778,496.645c-.544,19.436-4.263,38.736-8.525,57.728-.945,3.848-1.81,7.697-2.847,11.546-1.09,3.849-1.692,7.697-3.705,11.546-2.404,4.52-5.344,8.165-9.923,11.546-2.64-1.924-4.541-3.849-6.119-5.773-4.425-5.065-6.057-11.227-7.509-17.318-1.037-3.848-1.903-7.697-2.847-11.545-2.624-11.447-4.92-23.063-6.511-34.637-1.033-7.697-1.895-15.394-2.014-23.091.928-33.671,49.055-33.71,50,0h0Z"/></g><path id="Outer_Border" class="cls-1" d="M569.118,309.108c0-140.468-113.872-254.34-254.34-254.34S60.438,168.64,60.438,309.108c0,37.421,8.09,72.95,22.607,104.943.004.004.009.009.013.013,8.928,20.732,32.838,39.172,69.523,53.134,43.567,16.581,101.23,25.713,162.367,25.713s118.8-9.132,162.367-25.713c39.53-15.045,64.22-35.29,71.319-58,13.173-30.719,20.482-64.548,20.482-100.09ZM460.066,434.588c-38.577,14.683-90.118,22.769-145.127,22.769s-106.549-8.086-145.127-22.769c-26.897-10.237-45.198-23.103-51.654-35.833-.007-.005-.014-.009-.022-.014-1.1-2.361-2.175-4.736-3.193-7.144-11.302-26.721-17.033-55.12-17.033-84.407s5.731-57.686,17.033-84.407c10.922-25.822,26.562-49.017,46.486-68.941,19.924-19.924,43.119-35.564,68.941-46.486,26.721-11.302,55.12-17.033,84.407-17.033s57.686,5.731,84.407,17.033c25.822,10.922,49.017,26.562,68.941,46.486,19.924,19.924,35.565,43.119,46.486,68.941,11.302,26.721,17.033,55.12,17.033,84.407s-5.731,57.686-17.033,84.407c-1.433,3.388-2.957,6.726-4.554,10.02-7.594,11.781-25.109,23.5-49.991,32.971Z"/><g id="LeftVoid_Impression"><path class="cls-1" d="M99.694,405.241c-4.494-1.804-9.067-3.702-13.374-5.912-.79-.381-1.72-.981-2.431-1.448-.846-.608-.551-.754-.573-1.027.388-6.634,3.79-13.014,9.635-16.258,3.782-2.25,8.235-3.942,11.766-6.327,7.792-5.173,16.122-8.436,24.125-11.657,13.91-5.52,27.889-9.713,42.6-11.739,2.052-.309,4.114-.566,6.222-.563,4.113.006,7.442,3.345,7.436,7.458-.004,2.78-1.531,5.201-3.79,6.477-3.478,1.882-7.154,3.114-10.675,4.85-9.995,4.742-19.883,10.3-28.446,17.14-5.665,4.536-10.48,10.021-14.727,14.97-2.105,2.36-2.841,6.086-3.362,8.957-.453,2.108-1.297,3.428-3.663,2.735-.631-.271-2.267-.907-2.927-1.169-5.749-2.276-12.046-4.322-17.815-6.486h0Z"/></g><g id="Right_Void_Impression"><path class="cls-1" d="M526.762,406.463c-4.64,1.595-9.912,3.492-14.508,5.265-.652.247-2.291.908-2.927,1.169-2.354.68-3.203-.593-3.663-2.735-.521-2.874-1.257-6.596-3.363-8.957-4.247-4.949-9.061-10.434-14.727-14.97-8.563-6.84-18.45-12.398-28.446-17.14-3.517-1.734-7.19-2.963-10.665-4.845-3.586-2.014-4.86-6.554-2.846-10.14,2.639-4.818,8.21-3.935,12.704-3.238,14.712,2.027,28.688,6.219,42.6,11.739,8.003,3.222,16.333,6.484,24.125,11.657,1.951,1.287,4.108,2.417,6.438,3.537,8.815,3.865,14.182,8.959,14.963,19.048-.022.273.273.419-.573,1.027-.715.467-1.643,1.066-2.431,1.448-5.379,2.699-11.015,5.1-16.681,7.134h0Z"/></g><g id="Inner_Sphere_Fill"><path class="cls-1" d="M314.778,412.148c-29.742,0-66.757,0-87.339-31.688-10.949-16.858-16.737-36.438-16.737-56.621,0-57.388,46.688-104.076,104.076-104.076s104.075,46.688,104.075,104.076c0,20.117-5.752,39.642-16.633,56.462-20.604,31.847-57.664,31.847-87.442,31.847Z"/><path class="cls-1" d="M314.778,228.763c52.509,0,95.076,42.567,95.076,95.076,0,19.01-5.579,36.718-15.19,51.574-16.935,26.178-46.387,27.736-79.885,27.736s-62.841-1.494-79.791-27.59c-9.669-14.886-15.285-32.647-15.285-51.72,0-52.509,42.567-95.076,95.076-95.076M314.778,210.763c-30.204,0-58.599,11.762-79.956,33.119-21.357,21.357-33.119,49.753-33.119,79.956,0,21.929,6.29,43.204,18.189,61.524,23.243,35.785,64.651,35.785,94.886,35.785,16.901,0,34.747-.36,50.812-4.664,19.488-5.221,33.941-15.458,44.186-31.294,11.826-18.28,18.077-39.495,18.077-61.351,0-30.204-11.762-58.599-33.119-79.956s-49.753-33.119-79.956-33.119h0Z"/></g></svg>